<svg width="32" height="32" viewBox="0 0 32 32" fill="none" xmlns="http://www.w3.org/2000/svg">
<path d="M12.88 18.504L11.46 19.924C10.5161 18.8349 9.99757 17.4413 10 16V8C10 6.4087 10.6322 4.88258 11.7574 3.75736C12.8826 2.63214 14.4087 2 16 2C17.5913 2 19.1174 2.63214 20.2427 3.75736C21.3679 4.88258 22 6.4087 22 8V9.386L20 11.386V8C20 6.93913 19.5786 5.92172 18.8284 5.17157C18.0783 4.42143 17.0609 4 16 4C14.9391 4 13.9217 4.42143 13.1716 5.17157C12.4214 5.92172 12 6.93913 12 8V16C12 16.948 12.33 17.82 12.88 18.504ZM14.504 19.71C15.1112 19.9548 15.7691 20.0469 16.4201 19.9782C17.0712 19.9094 17.6954 19.6819 18.238 19.3156C18.7806 18.9493 19.225 18.4555 19.5322 17.8774C19.8394 17.2993 20.0001 16.6547 20 16V14.214L22 12.214V16C22.0004 17.0524 21.7239 18.0864 21.1984 18.9982C20.6729 19.91 19.9167 20.6676 19.0059 21.1948C18.0951 21.7221 17.0616 22.0005 16.0092 22.0021C14.9568 22.0037 13.9224 21.7285 13.01 21.204L14.504 19.71ZM9.84001 24.374L11.282 22.934C12.3959 23.6331 13.6849 24.0026 15 24H17C18.8565 24 20.637 23.2625 21.9498 21.9497C23.2625 20.637 24 18.8565 24 17V16C24 15.7348 24.1054 15.4804 24.2929 15.2929C24.4804 15.1054 24.7348 15 25 15C25.2652 15 25.5196 15.1054 25.7071 15.2929C25.8947 15.4804 26 15.7348 26 16V17C26 19.3869 25.0518 21.6761 23.364 23.364C21.6761 25.0518 19.387 26 17 26V28H19C19.2652 28 19.5196 28.1054 19.7071 28.2929C19.8947 28.4804 20 28.7348 20 29C20 29.2652 19.8947 29.5196 19.7071 29.7071C19.5196 29.8946 19.2652 30 19 30H13C12.7348 30 12.4804 29.8946 12.2929 29.7071C12.1054 29.5196 12 29.2652 12 29C12 28.7348 12.1054 28.4804 12.2929 28.2929C12.4804 28.1054 12.7348 28 13 28H15V26C13.08 26 11.3 25.4 9.84001 24.374ZM8.33601 23.05C6.82989 21.3954 5.99669 19.2375 6.00001 17V16C6.00001 15.7348 6.10537 15.4804 6.2929 15.2929C6.48044 15.1054 6.73479 15 7.00001 15C7.26523 15 7.51958 15.1054 7.70712 15.2929C7.89465 15.4804 8.00001 15.7348 8.00001 16V17C8.00001 18.776 8.66201 20.4 9.75201 21.634L8.33601 23.05Z" fill="white"/>
<path d="M4.7101 26.846C4.5223 27.0291 4.27008 27.1311 4.00778 27.13C3.74548 27.1289 3.49412 27.0248 3.30786 26.8401C3.12161 26.6554 3.01537 26.405 3.01204 26.1427C3.00872 25.8804 3.10858 25.6273 3.2901 25.438L25.2901 3.296C25.4779 3.11288 25.7301 3.01087 25.9924 3.01197C26.2547 3.01307 26.5061 3.11718 26.6923 3.30186C26.8786 3.48655 26.9848 3.73702 26.9882 3.99929C26.9915 4.26157 26.8916 4.51465 26.7101 4.704L4.7101 26.846Z" fill="white"/>
</svg>
