<svg width="32" height="32" viewBox="0 0 32 32" fill="none" xmlns="http://www.w3.org/2000/svg">
<path d="M27.3926 28.2194C27.8137 28.5034 28.3714 28.3897 28.7011 27.9234C30.7829 24.9428 32 21.1091 32 17.048C32 12.9868 30.7714 9.14225 28.7011 6.16168C28.3714 5.6954 27.8137 5.58168 27.3926 5.87711C26.9606 6.17311 26.892 6.74168 27.2223 7.21997C29.0537 9.9154 30.1914 13.3743 30.1914 17.0485C30.1914 20.7228 29.088 24.2263 27.2223 26.8771C26.892 27.3434 26.9606 27.912 27.3926 28.2194ZM12.98 27.4343C13.7531 27.4343 14.3109 26.8657 14.3109 26.1028V7.9594C14.3109 7.19711 13.7531 6.56054 12.9566 6.56054C12.3994 6.56054 12.0354 6.83311 11.4211 7.3794L6.07486 12.1228C5.99732 12.1934 5.89501 12.2304 5.79029 12.2257H2.41143C0.796571 12.2257 0 13.0331 0 14.7514V19.2783C0 20.996 0.796571 21.804 2.41143 21.804H5.79029C5.904 21.804 6.00629 21.8383 6.07486 21.9063L11.4211 26.6954C11.9789 27.196 12.4223 27.4348 12.98 27.4348M22.8086 25.1143C23.252 25.4097 23.7983 25.296 24.1166 24.8411C25.6183 22.748 26.4937 19.9611 26.4937 17.0485C26.4937 14.1251 25.6297 11.3383 24.1166 9.24511C23.7869 8.80111 23.252 8.6874 22.808 8.9834C22.376 9.2794 22.308 9.83654 22.6491 10.3263C23.8891 12.1457 24.6629 14.5348 24.6629 17.0485C24.6629 19.5628 23.912 21.9743 22.6491 23.772C22.3194 24.2611 22.376 24.8183 22.8086 25.1143ZM12.32 25.0343C12.2629 25.0343 12.1943 25 12.1263 24.932L7.08686 20.3931C6.81429 20.1428 6.58686 20.0863 6.27943 20.0863H2.49086C2.04743 20.0863 1.83143 19.8811 1.83143 19.4263V14.6034C1.83143 14.1594 2.04743 13.9434 2.49143 13.9434H6.27943C6.58629 13.9434 6.80286 13.8977 7.08686 13.636L12.1269 9.06283C12.1834 9.01711 12.2514 8.97197 12.32 8.97197C12.4223 8.97197 12.4794 9.04054 12.4794 9.1314V24.8628C12.4794 24.9657 12.4223 25.0331 12.3194 25.0331M18.2691 22.0417C18.6554 22.3148 19.2131 22.2234 19.5434 21.78C20.4303 20.5857 20.9646 18.8337 20.9646 17.0474C20.9646 15.2617 20.4189 13.5217 19.5429 12.304C19.2131 11.8605 18.6669 11.7691 18.2686 12.0423C17.7686 12.372 17.7114 12.9525 18.0754 13.4531C18.7354 14.34 19.1331 15.6937 19.1331 17.0474C19.1331 18.4017 18.7126 19.7548 18.0646 20.6537C17.7229 21.1428 17.7794 21.7005 18.2686 22.0417" fill="white"/>
</svg>
