<svg width="20" height="20" viewBox="0 0 20 20" fill="none" xmlns="http://www.w3.org/2000/svg">
<g clip-path="url(#clip0_109_20)">
<path fill-rule="evenodd" clip-rule="evenodd" d="M13.8037 19.1406C12.6026 19.6615 11.3216 19.9219 9.96094 19.9219C8.60026 19.9219 7.31933 19.6615 6.11816 19.1406C4.91699 18.6198 3.85742 17.9004 2.93945 16.9824C2.02148 16.0645 1.30208 15.0049 0.78125 13.8037C0.260417 12.6026 0 11.3216 0 9.96094C0 8.60026 0.260417 7.31933 0.78125 6.11816C1.30208 4.91699 2.01986 3.85742 2.93457 2.93945C3.84928 2.02148 4.90723 1.30208 6.1084 0.78125C7.30957 0.260417 8.5905 0 9.95117 0C11.3119 0 12.5944 0.260417 13.7988 0.78125C15.0033 1.30208 16.0645 2.02148 16.9824 2.93945C17.9004 3.85742 18.6198 4.91699 19.1406 6.11816C19.6615 7.31933 19.9219 8.60026 19.9219 9.96094C19.9219 11.3216 19.6615 12.6026 19.1406 13.8037C18.6198 15.0049 17.9004 16.0645 16.9824 16.9824C16.0645 17.9004 15.0049 18.6198 13.8037 19.1406ZM7.74414 18.1396C8.4733 18.3382 9.21224 18.4375 9.96094 18.4375C10.7031 18.4375 11.4404 18.3382 12.1729 18.1396C12.9053 17.9411 13.5938 17.6546 14.2383 17.2803C14.8828 16.906 15.4557 16.4551 15.957 15.9277C15.6055 15.3678 15.1253 14.891 14.5166 14.4971C13.9079 14.1032 13.2145 13.8037 12.4365 13.5986C11.6585 13.3935 10.8333 13.291 9.96094 13.291C9.07552 13.291 8.24218 13.3952 7.46094 13.6035C6.67968 13.8118 5.98795 14.1129 5.38574 14.5068C4.78352 14.9007 4.30664 15.3744 3.95508 15.9277C4.45638 16.4551 5.03092 16.906 5.67871 17.2803C6.32649 17.6546 7.01497 17.9411 7.74414 18.1396ZM8.25684 11.1377C8.76139 11.46 9.32942 11.6244 9.96094 11.6309C10.5859 11.6374 11.1507 11.4795 11.6553 11.1572C12.1598 10.8349 12.5618 10.3939 12.8613 9.83398C13.1608 9.27408 13.3105 8.64583 13.3105 7.94922C13.3105 7.29166 13.1608 6.68945 12.8613 6.14258C12.5618 5.5957 12.1582 5.15788 11.6504 4.8291C11.1426 4.50032 10.5794 4.33594 9.96094 4.33594C9.33594 4.33594 8.76953 4.50032 8.26172 4.8291C7.7539 5.15788 7.35026 5.5957 7.05078 6.14258C6.7513 6.68945 6.60482 7.29166 6.61133 7.94922C6.61133 8.64583 6.75944 9.27083 7.05566 9.82422C7.35188 10.3776 7.75228 10.8154 8.25684 11.1377Z" fill="white"/>
</g>
<defs>
<clipPath id="clip0_109_20">
<rect width="19.9219" height="19.9316" fill="white"/>
</clipPath>
</defs>
</svg>
