<svg width="20" height="20" viewBox="0 0 20 20" fill="none" xmlns="http://www.w3.org/2000/svg">
<g clip-path="url(#clip0_2_5591)">
<path d="M15.0794 19.5899C15.9323 19.5899 16.6582 19.4678 17.2572 19.2237C17.8562 18.9796 18.403 18.5775 18.8978 18.0176C18.9369 17.9785 18.9743 17.9379 19.0101 17.8956C19.0459 17.8533 19.0834 17.8126 19.1224 17.7735C19.4154 17.448 19.6318 17.1241 19.7718 16.8018C19.9118 16.4795 19.9818 16.1654 19.9818 15.8594C19.9818 15.5079 19.8777 15.1677 19.6693 14.8389C19.461 14.5101 19.1387 14.196 18.7025 13.8965L15.8607 11.9239C15.4245 11.6244 14.9639 11.4714 14.4788 11.4649C13.9938 11.4584 13.5463 11.6569 13.1361 12.0606L12.3841 12.8125C12.2735 12.9232 12.1677 12.9851 12.0667 12.9981C11.9659 13.0111 11.8601 12.9818 11.7493 12.9102C11.5736 12.7995 11.3506 12.6335 11.0804 12.4122C10.8103 12.1908 10.5287 11.9483 10.2357 11.6846C9.94275 11.4209 9.67583 11.1687 9.43494 10.9278C9.18103 10.6739 8.93526 10.4167 8.69763 10.1563C8.46 9.89588 8.24191 9.6436 8.04334 9.39946C7.84477 9.15532 7.68038 8.92908 7.55017 8.72075C7.48507 8.61007 7.45903 8.50428 7.47205 8.40337C7.48507 8.30246 7.54692 8.19666 7.65759 8.08598L8.39978 7.33403C8.80994 6.92388 9.01176 6.47629 9.00525 5.99126C8.99874 5.50623 8.84574 5.04562 8.54627 4.60942L6.57361 1.76762C6.26762 1.33142 5.95187 1.01079 5.62634 0.80571C5.30082 0.600632 4.96228 0.494838 4.61072 0.488327C3.99223 0.475306 3.35421 0.761765 2.69666 1.3477C2.65759 1.38676 2.6169 1.4242 2.57459 1.46001C2.53227 1.49582 2.49158 1.53 2.45252 1.56255C1.89913 2.05734 1.49874 2.60421 1.25134 3.20317C1.00395 3.80213 0.880249 4.52479 0.880249 5.37114C0.880249 6.30213 1.06742 7.28845 1.44177 8.33012C1.81612 9.37179 2.36625 10.4346 3.09216 11.5186C3.81807 12.6026 4.70512 13.6687 5.7533 14.7168C6.80147 15.7585 7.86593 16.6423 8.94666 17.3682C10.0274 18.0941 11.0869 18.6459 12.1253 19.0235C13.1637 19.4011 14.1484 19.5899 15.0794 19.5899ZM15.0892 18.086C14.2624 18.1055 13.3738 17.9232 12.4232 17.5391C11.4727 17.155 10.5222 16.6293 9.57166 15.962C8.62113 15.2947 7.72269 14.5411 6.87634 13.7012C6.02999 12.8549 5.26339 11.945 4.57654 10.9717C3.88969 9.99841 3.3477 9.02837 2.95056 8.06157C2.55343 7.09478 2.36137 6.19797 2.37439 5.37114C2.38741 4.83077 2.48832 4.33435 2.67713 3.88188C2.86593 3.42941 3.15239 3.03715 3.5365 2.70512C3.56905 2.67257 3.59998 2.64491 3.62927 2.62212C3.65857 2.59933 3.6895 2.57492 3.72205 2.54888C3.86528 2.42518 4.01339 2.32915 4.16638 2.26079C4.31937 2.19243 4.46749 2.15825 4.61072 2.15825C4.92322 2.15825 5.1641 2.29171 5.33337 2.55864L7.22791 5.40044C7.33208 5.55669 7.38253 5.71619 7.37927 5.87895C7.37602 6.04171 7.29952 6.19796 7.14978 6.3477L6.29041 7.20708C5.95186 7.53911 5.78259 7.89881 5.78259 8.28618C5.78259 8.67355 5.90629 9.02999 6.15369 9.35552C6.43364 9.73312 6.78845 10.166 7.21814 10.6543C7.64783 11.1426 8.05147 11.5723 8.42908 11.9434C8.67647 12.1908 8.9613 12.4626 9.28357 12.7588C9.60584 13.0551 9.9281 13.3415 10.2504 13.6182C10.5726 13.8949 10.8607 14.1277 11.1146 14.3165C11.4402 14.5574 11.795 14.6794 12.179 14.6827C12.5632 14.6859 12.9245 14.5182 13.263 14.1797L14.1224 13.3204C14.2722 13.1641 14.4284 13.086 14.5911 13.086C14.7539 13.086 14.9135 13.1348 15.0697 13.2325L17.9114 15.127C18.0547 15.2247 18.1573 15.3353 18.2191 15.459C18.2809 15.5827 18.3118 15.7162 18.3118 15.8594C18.3118 16.1524 18.1817 16.4486 17.9212 16.7481C17.8953 16.7806 17.8708 16.8116 17.848 16.8409C17.8252 16.8702 17.7976 16.9011 17.765 16.9336C17.433 17.3177 17.0391 17.6042 16.5833 17.793C16.1276 17.9818 15.6296 18.0795 15.0892 18.086Z" fill="#28CD41"/>
</g>
<defs>
<clipPath id="clip0_2_5591">
<rect width="19.1016" height="19.1504" fill="white" transform="translate(0.880249 0.439499)"/>
</clipPath>
</defs>
</svg>
